<svg xmlns="http://www.w3.org/2000/svg" viewBox="0 0 2520 1072" width="2520" height="1072">
  <defs>
    <filter id="shadow" x="-20%" y="-20%" width="140%" height="140%">
      <feDropShadow dx="0" dy="8" stdDeviation="12" flood-color="#0f172a" flood-opacity="0.12"/>
    </filter>
    <marker id="arrow-blue" markerWidth="10" markerHeight="10" refX="9" refY="5" orient="auto">
      <path d="M0,0 L10,5 L0,10 Z" fill="#2563eb"/>
    </marker>
    <marker id="arrow-green" markerWidth="10" markerHeight="10" refX="9" refY="5" orient="auto">
      <path d="M0,0 L10,5 L0,10 Z" fill="#16a34a"/>
    </marker>
    <marker id="arrow-red" markerWidth="10" markerHeight="10" refX="9" refY="5" orient="auto">
      <path d="M0,0 L10,5 L0,10 Z" fill="#dc2626"/>
    </marker>
    <marker id="arrow-purple" markerWidth="10" markerHeight="10" refX="9" refY="5" orient="auto">
      <path d="M0,0 L10,5 L0,10 Z" fill="#7c3aed"/>
    </marker>
    <style>
      text {
        font-family: -apple-system, BlinkMacSystemFont, "Segoe UI", Helvetica, Arial, sans-serif;
        fill: #111827;
      }
      .title { font-size: 30px; font-weight: 700; }
      .subtitle { font-size: 18px; fill: #6b7280; }
      .box-title { font-size: 18px; font-weight: 700; }
      .label { font-size: 15px; }
      .small { font-size: 13px; fill: #6b7280; }
      .tiny { font-size: 12px; fill: #6b7280; }
      .mono { font-family: "SFMono-Regular", Menlo, Consolas, monospace; }
    </style>
  </defs>
<rect width="2520" height="1072" fill="#fffdf8"/><rect x="0" y="0" width="2520" height="180" fill="#f1f5f9" opacity="0.55"/><line x1="1840" y1="260" x2="1840" y2="930" stroke="#cbd5e1" stroke-width="2" opacity="0.55"/><line x1="1960" y1="260" x2="1960" y2="930" stroke="#cbd5e1" stroke-width="2" opacity="0.55"/><line x1="2080" y1="260" x2="2080" y2="930" stroke="#cbd5e1" stroke-width="2" opacity="0.55"/><line x1="2200" y1="260" x2="2200" y2="930" stroke="#cbd5e1" stroke-width="2" opacity="0.55"/><line x1="2320" y1="260" x2="2320" y2="930" stroke="#cbd5e1" stroke-width="2" opacity="0.55"/><line x1="2440" y1="260" x2="2440" y2="930" stroke="#cbd5e1" stroke-width="2" opacity="0.55"/><line x1="1820" y1="300" x2="2480" y2="300" stroke="#cbd5e1" stroke-width="2" opacity="0.55"/><line x1="1820" y1="420" x2="2480" y2="420" stroke="#cbd5e1" stroke-width="2" opacity="0.55"/><line x1="1820" y1="540" x2="2480" y2="540" stroke="#cbd5e1" stroke-width="2" opacity="0.55"/><line x1="1820" y1="660" x2="2480" y2="660" stroke="#cbd5e1" stroke-width="2" opacity="0.55"/><line x1="1820" y1="780" x2="2480" y2="780" stroke="#cbd5e1" stroke-width="2" opacity="0.55"/><line x1="1820" y1="900" x2="2480" y2="900" stroke="#cbd5e1" stroke-width="2" opacity="0.55"/><text x="110" y="455" class="title" text-anchor="start">cluacov Branch Coverage:</text><text x="110" y="555" class="title" text-anchor="start">From Line-Level Approximation</text><text x="110" y="645" class="title" text-anchor="start">to Instruction-Level Precision</text><text x="110" y="720" class="subtitle" text-anchor="start">A Medium-ready English adaptation</text><text x="1450" y="450" class="title" text-anchor="middle">if a or b or c then</text><rect x="1170" y="495" width="520" height="110" rx="6" ry="6" fill="#243b6b" stroke="#243b6b" stroke-width="2" filter="url(#shadow)"/><circle cx="1460" cy="550" r="18" fill="#ffbf8a"/><circle cx="1460" cy="550" r="34" fill="#ffd7b6" opacity="0.28"/><text x="1460" y="715" class="box-title" text-anchor="middle">LINE</text><line x1="1715" y1="550" x2="1840" y2="550" stroke="#1f3a68" stroke-width="4" marker-end="url(#arrow-blue)"/><rect x="1860" y="540" width="170" height="170" rx="6" ry="6" fill="#243b6b" stroke="#243b6b" stroke-width="2" filter="url(#shadow)"/><circle cx="1902" cy="620" r="16" fill="#ffbf8a"/><circle cx="1902" cy="620" r="30" fill="#ffd7b6" opacity="0.25"/><text x="1970" y="635" class="box-title" text-anchor="middle">TEST a</text><rect x="2100" y="540" width="170" height="170" rx="6" ry="6" fill="#243b6b" stroke="#243b6b" stroke-width="2" filter="url(#shadow)"/><circle cx="2142" cy="620" r="16" fill="#ffbf8a"/><circle cx="2142" cy="620" r="30" fill="#ffd7b6" opacity="0.25"/><text x="2210" y="635" class="box-title" text-anchor="middle">TEST b</text><rect x="2340" y="540" width="170" height="170" rx="6" ry="6" fill="#243b6b" stroke="#243b6b" stroke-width="2" filter="url(#shadow)"/><circle cx="2382" cy="620" r="16" fill="#ffbf8a"/><circle cx="2382" cy="620" r="30" fill="#ffd7b6" opacity="0.25"/><text x="2450" y="635" class="box-title" text-anchor="middle">TEST c</text><text x="2185" y="785" class="box-title" text-anchor="middle">PC</text></svg>